<?xml version="1.0" encoding="utf-8"?>
<!-- Generator: Adobe Illustrator 22.0.0, SVG Export Plug-In . SVG Version: 6.00 Build 0)  -->
<svg version="1.1" id="Layer_1" xmlns="http://www.w3.org/2000/svg" xmlns:xlink="http://www.w3.org/1999/xlink"
	width="787.17" height="730" viewBox="100 100 787.17 730" style="enable-background:new 0 0 1000 1000;" xml:space="preserve">
<style type="text/css">
	.st0{fill-rule:evenodd;clip-rule:evenodd;fill:#7EA1BF;}
	.st1{fill:none;stroke:#000000;stroke-width:1.2132;stroke-linecap:round;stroke-linejoin:round;stroke-miterlimit:22.9256;}
	.st2{fill-rule:evenodd;clip-rule:evenodd;fill:#FFCC00;}
	.st3{fill-rule:evenodd;clip-rule:evenodd;fill:#FFFFFF;}
	.st4{fill-rule:evenodd;clip-rule:evenodd;fill:#FF0000;}
	.st5{fill-rule:evenodd;clip-rule:evenodd;fill:#339966;}
	.st6{fill-rule:evenodd;clip-rule:evenodd;fill:#0066FF;}
	.st7{fill:none;stroke:#000000;stroke-width:1.2129;stroke-linecap:round;stroke-linejoin:round;stroke-miterlimit:22.9256;}
	.st8{fill:none;stroke:#000000;stroke-width:1.213;stroke-linecap:round;stroke-linejoin:round;stroke-miterlimit:22.9256;}
	.st9{fill:none;stroke:#000000;stroke-width:1.2131;stroke-linecap:round;stroke-linejoin:round;stroke-miterlimit:22.9256;}
	.st10{fill:none;stroke:#000000;stroke-width:1.2128;stroke-linecap:round;stroke-linejoin:round;stroke-miterlimit:22.9256;}
	.st11{fill:none;stroke:#000000;stroke-width:1.2127;stroke-linecap:round;stroke-linejoin:round;stroke-miterlimit:22.9256;}
	.st12{clip-path:url(#SVGID_2_);fill-rule:evenodd;clip-rule:evenodd;fill:#006633;}
	.st13{clip-path:url(#SVGID_2_);fill:none;stroke:#000000;stroke-width:1.2132;stroke-miterlimit:22.9256;}
	.st14{fill:none;stroke:#000000;stroke-width:1.2096;stroke-linecap:round;stroke-linejoin:round;stroke-miterlimit:22.9256;}
	.st15{fill-rule:evenodd;clip-rule:evenodd;fill:#FFC4EB;}
	.st16{fill:none;stroke:#0066FF;stroke-width:1.2132;stroke-linecap:round;stroke-linejoin:round;stroke-miterlimit:22.9256;}
	.st17{fill:none;stroke:#000000;stroke-width:1.2166;stroke-linecap:round;stroke-linejoin:round;stroke-miterlimit:22.9256;}
	.st18{fill-rule:evenodd;clip-rule:evenodd;fill:#DB0000;}
	.st19{fill:#FFFFFF;}
</style>
<g>
	<polygon class="st0" points="366.3,506.1 374.9,503 582,580.6 573.4,583.8 	"/>
	<polygon class="st1" points="366.3,506.1 374.9,503 582,580.6 573.4,583.8 	"/>
	<polygon class="st0" points="573.4,583.8 582,580.6 582,743.5 573.4,746.6 	"/>
	<polygon class="st1" points="573.4,583.8 582,580.6 582,743.5 573.4,746.6 	"/>
	<polygon class="st2" points="366.3,506.1 573.4,583.8 573.4,746.6 366.3,668.9 	"/>
	<polygon class="st1" points="366.3,506.1 573.4,583.8 573.4,746.6 366.3,668.9 	"/>
	<polygon class="st3" points="366.3,506.1 573.4,583.8 573.4,606.6 366.3,528.9 	"/>
	<polygon class="st1" points="366.3,506.1 573.4,583.8 573.4,606.6 366.3,528.9 	"/>
	<path class="st4" d="M375.7,514.8c2.8,0,5.7,3.1,6.5,6.9c0.8,3.8-0.8,6.9-3.6,6.9s-5.7-3.1-6.5-6.9
		C371.3,517.9,372.9,514.8,375.7,514.8z"/>
	<path class="st1" d="M375.7,514.8c2.8,0,5.7,3.1,6.5,6.9c0.8,3.8-0.8,6.9-3.6,6.9s-5.7-3.1-6.5-6.9
		C371.3,517.9,372.9,514.8,375.7,514.8z"/>
	<path class="st2" d="M390.7,520.8c2.8,0,5.7,3.1,6.5,6.9c0.8,3.8-0.8,6.9-3.6,6.9c-2.8,0-5.7-3.1-6.5-6.9
		C386.3,523.8,387.9,520.8,390.7,520.8z"/>
	<path class="st1" d="M390.7,520.8c2.8,0,5.7,3.1,6.5,6.9c0.8,3.8-0.8,6.9-3.6,6.9c-2.8,0-5.7-3.1-6.5-6.9
		C386.3,523.8,387.9,520.8,390.7,520.8z"/>
	<path class="st5" d="M405.8,526.7c2.8,0,5.7,3.1,6.5,6.9c0.8,3.8-0.8,6.9-3.6,6.9c-2.8,0-5.7-3.1-6.5-6.9
		C401.4,529.8,403,526.7,405.8,526.7z"/>
	<path class="st1" d="M405.8,526.7c2.8,0,5.7,3.1,6.5,6.9c0.8,3.8-0.8,6.9-3.6,6.9c-2.8,0-5.7-3.1-6.5-6.9
		C401.4,529.8,403,526.7,405.8,526.7z"/>
	<path class="st6" d="M500.4,671.2c-7.2,7.7-18.1,9.8-30.3,4.5c-21.3-9.3-38.3-37.9-38.1-63.8c0.1-14.5,5.7-25.1,14.3-30
		c-3.8,5.7-6,13.3-6.1,22.6c-0.3,26.4,17.1,55.6,38.8,65.1C486.8,672.9,494.2,673.3,500.4,671.2z"/>
	<path class="st7" d="M500.4,671.2c-7.2,7.7-18.1,9.8-30.3,4.5c-21.3-9.3-38.3-37.9-38.1-63.8c0.1-14.5,5.7-25.1,14.3-30
		c-3.8,5.7-6,13.3-6.1,22.6c-0.3,26.4,17.1,55.6,38.8,65.1C486.8,672.9,494.2,673.3,500.4,671.2z"/>
	<path class="st6" d="M501.7,649.9c-4.9,5.3-12.4,6.7-20.8,3.1c-14.6-6.4-26.3-26-26.1-43.8c0.1-10,3.9-17.2,9.8-20.6
		c-2.6,3.9-4.1,9.2-4.2,15.5c-0.2,18.1,11.8,38.1,26.7,44.7C492.4,651.1,497.4,651.4,501.7,649.9z"/>
	<path class="st8" d="M501.7,649.9c-4.9,5.3-12.4,6.7-20.8,3.1c-14.6-6.4-26.3-26-26.1-43.8c0.1-10,3.9-17.2,9.8-20.6
		c-2.6,3.9-4.1,9.2-4.2,15.5c-0.2,18.1,11.8,38.1,26.7,44.7C492.4,651.1,497.4,651.4,501.7,649.9z"/>
	<path class="st6" d="M501.1,630.8c-2.8,3-7.1,3.9-12,1.8c-8.4-3.7-15.1-15-15-25.2c0.1-5.7,2.2-9.9,5.6-11.8
		c-1.5,2.2-2.4,5.3-2.4,8.9c-0.1,10.4,6.8,21.9,15.3,25.7C495.8,631.5,498.7,631.7,501.1,630.8z"/>
	<path class="st8" d="M501.1,630.8c-2.8,3-7.1,3.9-12,1.8c-8.4-3.7-15.1-15-15-25.2c0.1-5.7,2.2-9.9,5.6-11.8
		c-1.5,2.2-2.4,5.3-2.4,8.9c-0.1,10.4,6.8,21.9,15.3,25.7C495.8,631.5,498.7,631.7,501.1,630.8z"/>
	<polygon class="st3" points="704.3,251.1 788.2,282.6 827,340.7 827,486.3 704.3,440.2 	"/>
	<polygon class="st1" points="704.3,251.1 788.2,282.6 827,340.7 827,486.3 704.3,440.2 	"/>
	<polygon class="st6" points="788.8,283.6 827,340.7 788.8,324.1 	"/>
	<polygon class="st1" points="788.8,283.6 827,340.7 788.8,324.1 	"/>
	<line class="st9" x1="809.7" y1="355.6" x2="719.5" y2="319.9"/>
	<line class="st9" x1="809.7" y1="387.2" x2="719.5" y2="351.6"/>
	<line class="st9" x1="783.7" y1="408.5" x2="719.5" y2="383.2"/>
	<line class="st9" x1="809.7" y1="363.4" x2="719.5" y2="327.8"/>
	<line class="st9" x1="809.7" y1="395" x2="719.5" y2="359.4"/>
	<line class="st9" x1="783.7" y1="416.3" x2="719.5" y2="391"/>
	<line class="st9" x1="809.7" y1="371.2" x2="719.5" y2="335.6"/>
	<line class="st9" x1="809.7" y1="402.8" x2="719.5" y2="367.2"/>
	<line class="st9" x1="783.7" y1="424.2" x2="719.5" y2="398.8"/>
	<line class="st9" x1="809.7" y1="379" x2="719.5" y2="343.4"/>
	<line class="st9" x1="809.7" y1="410.6" x2="719.5" y2="375"/>
	<line class="st9" x1="783.7" y1="432" x2="719.5" y2="406.6"/>
	<line class="st10" x1="825.9" y1="488.9" x2="587.6" y2="579.8"/>
	<line class="st11" x1="702.5" y1="441.7" x2="394.4" y2="559.3"/>
	<polygon class="st0" points="433.7,337.7 442.3,334.6 649.4,412.2 640.8,415.3 	"/>
	<polygon class="st1" points="433.7,337.7 442.3,334.6 649.4,412.2 640.8,415.3 	"/>
	<polygon class="st0" points="640.8,415.3 649.4,412.2 649.4,575 640.8,578.1 	"/>
	<polygon class="st1" points="640.8,415.3 649.4,412.2 649.4,575 640.8,578.1 	"/>
	<polygon class="st5" points="433.7,337.7 640.8,415.3 640.8,578.1 433.7,500.5 	"/>
	<polygon class="st1" points="433.7,337.7 640.8,415.3 640.8,578.1 433.7,500.5 	"/>
	<polygon class="st3" points="433.7,337.7 640.8,415.3 640.8,438.2 433.7,360.5 	"/>
	<polygon class="st1" points="433.7,337.7 640.8,415.3 640.8,438.2 433.7,360.5 	"/>
	<path class="st4" d="M443,346.4c2.8,0,5.7,3.1,6.5,6.9c0.8,3.8-0.8,6.9-3.6,6.9c-2.8,0-5.7-3.1-6.5-6.9
		C438.6,349.4,440.3,346.4,443,346.4z"/>
	<path class="st1" d="M443,346.4c2.8,0,5.7,3.1,6.5,6.9c0.8,3.8-0.8,6.9-3.6,6.9c-2.8,0-5.7-3.1-6.5-6.9
		C438.6,349.4,440.3,346.4,443,346.4z"/>
	<path class="st2" d="M458.1,352.3c2.8,0,5.7,3.1,6.5,6.9c0.8,3.8-0.8,6.9-3.6,6.9c-2.8,0-5.7-3.1-6.5-6.9
		C453.7,355.4,455.3,352.3,458.1,352.3z"/>
	<path class="st1" d="M458.1,352.3c2.8,0,5.7,3.1,6.5,6.9c0.8,3.8-0.8,6.9-3.6,6.9c-2.8,0-5.7-3.1-6.5-6.9
		C453.7,355.4,455.3,352.3,458.1,352.3z"/>
	<path class="st5" d="M473.2,358.3c2.8,0,5.7,3.1,6.5,6.9c0.8,3.8-0.8,6.9-3.6,6.9s-5.7-3.1-6.5-6.9
		C468.8,361.3,470.4,358.3,473.2,358.3z"/>
	<path class="st1" d="M473.2,358.3c2.8,0,5.7,3.1,6.5,6.9c0.8,3.8-0.8,6.9-3.6,6.9s-5.7-3.1-6.5-6.9
		C468.8,361.3,470.4,358.3,473.2,358.3z"/>
	<polygon class="st5" points="536.9,515.2 557.5,475.9 578.2,436.6 545.7,423.7 542,430.9 536.9,440.5 531.8,426.9 528,416.6 
		495.6,403.8 516.3,459.5 	"/>
	<g>
		<defs>
			<polygon id="SVGID_1_" points="536.9,515.2 557.5,475.9 578.2,436.6 545.7,423.7 542,430.9 536.9,440.5 531.8,426.9 528,416.6 
				495.6,403.8 516.3,459.5 			"/>
		</defs>
		<clipPath id="SVGID_2_">
			<use xlink:href="#SVGID_1_"  style="overflow:visible;"/>
		</clipPath>
		<polygon class="st12" points="536.9,477 557.8,437.2 578.7,397.3 536.9,380.7 495.1,364.1 516,420.6 		"/>
		<polygon class="st13" points="536.9,477 557.8,437.2 578.7,397.3 536.9,380.7 495.1,364.1 516,420.6 		"/>
	</g>
	<polygon class="st14" points="536.9,515.2 557.5,475.9 578.2,436.5 545.7,423.7 541.9,430.9 536.9,440.5 531.8,426.8 528,416.6 
		495.6,403.7 516.2,459.5 	"/>
	<polygon class="st0" points="274.8,259.2 283.4,256.1 490.4,333.7 481.8,336.9 	"/>
	<polygon class="st1" points="274.8,259.2 283.4,256.1 490.4,333.7 481.8,336.9 	"/>
	<polygon class="st0" points="481.8,336.9 490.4,333.7 490.4,496.6 481.8,499.7 	"/>
	<polygon class="st1" points="481.8,336.9 490.4,333.7 490.4,496.6 481.8,499.7 	"/>
	<polygon class="st15" points="274.8,259.2 481.8,336.9 481.8,499.7 274.8,422 	"/>
	<polygon class="st1" points="274.8,259.2 481.8,336.9 481.8,499.7 274.8,422 	"/>
	<polygon class="st3" points="274.8,259.2 481.8,336.9 481.8,359.7 274.8,282 	"/>
	<polygon class="st1" points="274.8,259.2 481.8,336.9 481.8,359.7 274.8,282 	"/>
	<path class="st4" d="M284.1,267.9c2.8,0,5.7,3.1,6.5,6.9c0.8,3.8-0.8,6.9-3.6,6.9s-5.7-3.1-6.5-6.9
		C279.7,271,281.3,267.9,284.1,267.9z"/>
	<path class="st1" d="M284.1,267.9c2.8,0,5.7,3.1,6.5,6.9c0.8,3.8-0.8,6.9-3.6,6.9s-5.7-3.1-6.5-6.9
		C279.7,271,281.3,267.9,284.1,267.9z"/>
	<path class="st2" d="M299.2,273.9c2.8,0,5.7,3.1,6.5,6.9c0.8,3.8-0.8,6.9-3.6,6.9c-2.8,0-5.7-3.1-6.5-6.9
		C294.8,276.9,296.4,273.9,299.2,273.9z"/>
	<path class="st1" d="M299.2,273.9c2.8,0,5.7,3.1,6.5,6.9c0.8,3.8-0.8,6.9-3.6,6.9c-2.8,0-5.7-3.1-6.5-6.9
		C294.8,276.9,296.4,273.9,299.2,273.9z"/>
	<path class="st5" d="M314.2,279.8c2.8,0,5.7,3.1,6.5,6.9c0.8,3.8-0.8,6.9-3.6,6.9c-2.8,0-5.7-3.1-6.5-6.9
		C309.8,282.9,311.4,279.8,314.2,279.8z"/>
	<path class="st1" d="M314.2,279.8c2.8,0,5.7,3.1,6.5,6.9c0.8,3.8-0.8,6.9-3.6,6.9c-2.8,0-5.7-3.1-6.5-6.9
		C309.8,282.9,311.4,279.8,314.2,279.8z"/>
	<path class="st16" d="M355.8,331.8c8.4-3,25.4,18.8,38,48.7c12.6,29.9,16,56.6,7.6,59.7c-8.4,3-25.4-18.8-38-48.7
		C350.8,361.5,347.4,334.8,355.8,331.8z"/>
	<path class="st16" d="M401.4,349.9c-8.4-9.7-25.4-1.4-38,18.5c-12.6,19.9-16,43.9-7.6,53.6c8.4,9.7,25.4,1.4,38-18.5
		C406.4,383.6,409.8,359.6,401.4,349.9z"/>
	<path class="st16" d="M335.3,367.7c0.2-12,19.8-13.6,43.7-3.5c23.9,10.1,43.2,28,43,40c-0.2,12-19.8,13.6-43.7,3.5
		C354.3,397.6,335.1,379.7,335.3,367.7z"/>
	<path class="st6" d="M379.1,377.5c3.8,1.5,6.9,6.5,6.9,11.2c0,4.7-3.1,7.2-6.9,5.7c-3.8-1.5-6.9-6.5-6.9-11.2
		C372.2,378.6,375.3,376,379.1,377.5z"/>
	<path class="st16" d="M379.1,377.5c3.8,1.5,6.9,6.5,6.9,11.2c0,4.7-3.1,7.2-6.9,5.7c-3.8-1.5-6.9-6.5-6.9-11.2
		C372.2,378.6,375.3,376,379.1,377.5z"/>
	<line class="st7" x1="700.3" y1="251.1" x2="497.5" y2="328.5"/>
	<line class="st8" x1="822.7" y1="344.5" x2="658.1" y2="407.3"/>
	<polygon class="st0" points="172.9,487.2 181.5,484.1 388.5,561.7 379.9,564.8 	"/>
	<polygon class="st1" points="172.9,487.2 181.5,484.1 388.5,561.7 379.9,564.8 	"/>
	<polygon class="st0" points="379.9,564.8 388.5,561.7 388.5,724.5 379.9,727.6 	"/>
	<polygon class="st1" points="379.9,564.8 388.5,561.7 388.5,724.5 379.9,727.6 	"/>
	<polygon class="st4" points="172.9,487.2 379.9,564.8 379.9,727.6 172.9,650 	"/>
	<polygon class="st1" points="172.9,487.2 379.9,564.8 379.9,727.6 172.9,650 	"/>
	<polygon class="st3" points="172.9,487.2 379.9,564.8 379.9,587.7 172.9,510 	"/>
	<polygon class="st1" points="172.9,487.2 379.9,564.8 379.9,587.7 172.9,510 	"/>
	<path class="st4" d="M182.2,495.9c2.8,0,5.7,3.1,6.5,6.9c0.8,3.8-0.8,6.9-3.6,6.9c-2.8,0-5.7-3.1-6.5-6.9
		C177.8,498.9,179.4,495.9,182.2,495.9z"/>
	<path class="st1" d="M182.2,495.9c2.8,0,5.7,3.1,6.5,6.9c0.8,3.8-0.8,6.9-3.6,6.9c-2.8,0-5.7-3.1-6.5-6.9
		C177.8,498.9,179.4,495.9,182.2,495.9z"/>
	<path class="st2" d="M197.2,501.8c2.8,0,5.7,3.1,6.5,6.9c0.8,3.8-0.8,6.9-3.6,6.9c-2.8,0-5.7-3.1-6.5-6.9
		C192.8,504.9,194.4,501.8,197.2,501.8z"/>
	<path class="st1" d="M197.2,501.8c2.8,0,5.7,3.1,6.5,6.9c0.8,3.8-0.8,6.9-3.6,6.9c-2.8,0-5.7-3.1-6.5-6.9
		C192.8,504.9,194.4,501.8,197.2,501.8z"/>
	<path class="st5" d="M212.3,507.8c2.8,0,5.7,3.1,6.5,6.9c0.8,3.8-0.8,6.9-3.6,6.9c-2.8,0-5.7-3.1-6.5-6.9
		C207.9,510.8,209.5,507.8,212.3,507.8z"/>
	<path class="st1" d="M212.3,507.8c2.8,0,5.7,3.1,6.5,6.9c0.8,3.8-0.8,6.9-3.6,6.9c-2.8,0-5.7-3.1-6.5-6.9
		C207.9,510.8,209.5,507.8,212.3,507.8z"/>
	<polygon class="st4" points="271.3,567 236.1,575.7 243.2,632.5 271.3,661.7 	"/>
	<polygon class="st17" points="271.3,567 236.1,575.7 243.2,632.5 271.3,661.7 	"/>
	<polygon class="st18" points="271.3,567 306.6,603.7 299.4,654.8 271.3,661.7 	"/>
	<polygon class="st17" points="271.3,567 306.6,603.7 299.4,654.8 271.3,661.7 	"/>
	<path class="st3" d="M271.9,616.9l-0.9-0.4l-7-2.8l7.4-18.3l7.4,24.2L271.9,616.9z M271.9,577.5c-0.3-1-0.9-0.8-0.9-0.4L248.5,632
		l7.2,2.9l6-13.2l9.2,3.7l0.9,0.4l9.2,3.7l6,18l7.2,2.9L271.9,577.5z"/>
	<path class="st14" d="M271.9,616.9l-0.9-0.4l-7-2.8l7.4-18.3l7.4,24.2L271.9,616.9z M271.9,577.5c-0.3-1-0.9-0.8-0.9-0.4L248.5,632
		l7.2,2.9l6-13.2l9.2,3.7l0.9,0.4l9.2,3.7l6,18l7.2,2.9L271.9,577.5z"/>
	<polygon class="st6" points="674.5,266.9 765.7,302.4 765.7,345.9 674.5,310.4 	"/>
	<polygon class="st1" points="674.5,266.9 765.7,302.4 765.7,345.9 674.5,310.4 	"/>
	<path class="st19" d="M743.9,318.2l7.2,2.9l-2.2-8.2c-0.7-2.5-1.2-4.5-1.5-6.1c-0.3,1.6-0.7,3.1-1.2,4.6L743.9,318.2z M737.8,326.6
		l8.1-23.1l3.1,1.2l8.6,29.7l-3.2-1.3l-2.5-8.9l-8.9-3.6l-2.3,7.1L737.8,326.6z M729.6,323.3v-23.2l-7-2.8v-3.1l16.8,6.7v3.1l-7-2.8
		v23.2L729.6,323.3z M710.4,304.9l7.2,2.9l-2.2-8.2c-0.7-2.5-1.2-4.5-1.5-6.1c-0.3,1.6-0.7,3.1-1.2,4.6L710.4,304.9z M704.3,313.3
		l8.1-23.1l3.1,1.2l8.6,29.7l-3.2-1.3l-2.5-8.9l-8.9-3.5l-2.3,7.1L704.3,313.3z M688.1,303.7l4.5,1.8c1.4,0.6,2.5,0.8,3.3,0.8
		c0.8,0,1.4-0.2,1.9-0.6c0.7-0.6,1.2-1.5,1.6-2.7c0.4-1.2,0.6-2.9,0.6-4.9c0-2.8-0.4-5-1.1-6.8c-0.7-1.8-1.6-3.1-2.7-4
		c-0.8-0.7-2-1.3-3.6-2l-4.5-1.8V303.7z M685.2,305.7v-26.3l7.3,2.9c1.7,0.7,2.9,1.3,3.8,1.9c1.2,0.8,2.3,1.9,3.1,3.1
		c1.1,1.6,2,3.4,2.5,5.5c0.6,2,0.8,4.2,0.8,6.6c0,2-0.2,3.7-0.6,5.1c-0.4,1.4-0.9,2.5-1.4,3.3c-0.6,0.8-1.2,1.3-1.9,1.6
		c-0.7,0.3-1.5,0.4-2.5,0.3c-1-0.1-2.1-0.4-3.4-0.9L685.2,305.7z"/>
</g>
</svg>
